<svg width="1228" height="498" viewBox="0 0 1228 498" fill="none" xmlns="http://www.w3.org/2000/svg">
<path d="M1078.9 171.549H1111.54V207.685H1078.9V291.699C1078.9 296.141 1079.58 299.605 1080.93 302.089C1082.29 304.498 1084.17 306.191 1086.58 307.17C1089.07 308.149 1091.93 308.639 1095.16 308.639C1097.42 308.639 1099.68 308.45 1101.94 308.073C1104.2 307.622 1105.93 307.283 1107.13 307.058L1114.7 342.854C1112.29 343.607 1108.9 344.473 1104.54 345.451C1100.17 346.505 1094.86 347.145 1088.61 347.371C1077.02 347.823 1066.86 346.279 1058.12 342.741C1049.47 339.203 1042.73 333.707 1037.91 326.254C1033.24 319.034 1030.87 309.977 1030.8 299.083V207.685H1007.08V171.549H1030.8V129.993H1078.9V171.549Z" fill="#F3F3F3"/>
<path d="M993.464 345.001H945.358V113.733H993.464V345.001Z" fill="#F3F3F3"/>
<path d="M847.13 169.292C856.766 169.292 865.989 170.421 874.797 172.68C883.68 174.938 891.547 178.439 898.397 183.182C905.323 187.924 910.782 194.023 914.771 201.476C918.761 208.853 920.757 217.699 920.757 228.013V345.001H875.136V320.948H873.78C870.995 326.369 867.268 331.15 862.601 335.29C857.933 339.355 852.325 342.555 845.775 344.889C839.226 347.147 831.659 348.276 823.077 348.276C812.011 348.276 802.149 346.356 793.491 342.517C784.834 338.602 777.983 332.843 772.939 325.239C767.971 317.56 765.486 307.999 765.486 296.557C765.486 286.921 767.256 278.828 770.794 272.278C774.332 265.729 779.15 260.459 785.248 256.469C791.346 252.479 798.272 249.468 806.026 247.436C813.856 245.403 822.061 243.973 830.644 243.145C840.731 242.091 848.862 241.111 855.035 240.208C861.208 239.229 865.687 237.799 868.473 235.917C871.258 234.035 872.651 231.249 872.651 227.561V226.883C872.651 219.731 870.393 214.198 865.876 210.283C861.434 206.369 855.11 204.411 846.904 204.411C838.247 204.411 831.358 206.332 826.239 210.171C821.12 213.935 817.732 218.677 816.076 224.398L771.584 220.785C773.842 210.246 778.284 201.137 784.909 193.458C791.534 185.704 800.079 179.757 810.543 175.616C821.082 171.4 833.278 169.292 847.13 169.292ZM872.99 264.6C871.485 265.578 869.414 266.481 866.779 267.31C864.22 268.062 861.321 268.778 858.084 269.455C854.847 270.057 851.609 270.622 848.372 271.149C845.135 271.601 842.199 272.015 839.564 272.392C833.918 273.22 828.987 274.537 824.771 276.344C820.556 278.15 817.281 280.597 814.947 283.684C812.614 286.695 811.446 290.459 811.446 294.976C811.446 301.525 813.818 306.532 818.561 309.995C823.379 313.383 829.477 315.076 836.854 315.076C843.931 315.076 850.179 313.684 855.6 310.898C861.02 308.038 865.274 304.198 868.36 299.38C871.447 294.562 872.99 289.104 872.99 283.006V264.6Z" fill="#F3F3F3"/>
<path d="M438.76 290.789L451.856 291.653C451.799 291.925 451.74 292.195 451.68 292.465C451.614 292.76 451.545 293.054 451.476 293.347C449.665 300.948 446.613 307.84 442.32 314.023L407.668 311.737C406.023 316.074 403.63 319.738 400.49 322.729C397.35 325.719 393.574 327.963 389.163 329.458C384.752 330.953 379.891 331.701 374.583 331.701C366.583 331.701 359.666 330.019 353.834 326.654C348.002 323.29 343.479 318.504 340.264 312.298C337.124 306.092 335.553 298.727 335.553 290.204V290.092H340.688C343.872 295.913 348.254 300.434 353.834 303.653C359.666 307.018 366.583 308.7 374.583 308.7C379.891 308.7 384.752 307.953 389.163 306.458C393.574 304.963 397.35 302.719 400.49 299.729C401.07 299.176 401.623 298.599 402.152 298.001H402.149C403.145 296.876 404.049 295.668 404.864 294.38C405.712 293.038 406.465 291.61 407.117 290.092H407.12C407.311 289.648 407.494 289.196 407.668 288.737L438.76 290.789ZM371.891 166.489C383.255 166.489 393.836 168.322 403.631 171.985C413.5 175.574 422.099 180.995 429.426 188.247C436.828 195.5 442.585 204.622 446.697 215.613C450.809 226.529 452.866 239.315 452.866 253.97V267.092H452.533C451.802 256.495 449.857 247.002 446.697 238.613C442.585 227.623 436.828 218.501 429.426 211.248C422.099 203.996 413.5 198.574 403.631 194.985C393.836 191.322 383.255 189.49 371.891 189.49C354.993 189.49 340.263 193.228 327.702 200.705C315.216 208.182 305.533 218.613 298.654 231.996C293.288 242.438 290.015 254.2 288.835 267.281C288.503 263.523 288.337 259.646 288.337 255.652C288.337 237.932 291.776 222.38 298.654 208.996C305.533 195.613 315.216 185.182 327.702 177.705C340.263 170.228 354.993 166.489 371.891 166.489ZM400.195 237.483C401.383 238.939 402.454 240.512 403.406 242.202C406.397 247.511 407.893 253.605 407.893 260.483H335.599C335.887 254.298 337.479 248.652 340.376 243.548C341.608 241.348 343.025 239.327 344.625 237.483H400.195Z" fill="#F3F3F3"/>
<path d="M222.688 365.011C222.688 376.824 219.286 385.236 212.482 390.245C205.753 395.329 197.192 397.872 186.799 397.872C179.846 397.872 173.939 396.937 169.079 395.067C164.294 393.273 160.443 390.88 157.527 387.89C154.611 384.899 152.48 381.684 151.134 378.245L117.231 382.805C112.913 377.347 109.809 371.413 107.917 365.001H107.917C107.913 364.988 107.909 364.974 107.905 364.961C107.732 364.373 107.569 363.781 107.417 363.185C107.398 363.112 107.379 363.039 107.361 362.967C107.31 362.766 107.261 362.564 107.212 362.362C107.184 362.245 107.157 362.128 107.129 362.011C107.085 361.818 107.042 361.624 107 361.431C106.982 361.35 106.962 361.269 106.945 361.188L151.133 355.244C151.68 356.642 152.36 358.003 153.167 359.327L153.167 359.328C154.345 361.26 155.797 363.115 157.527 364.89C160.443 367.88 164.294 370.273 169.079 372.067C173.939 373.937 179.846 374.871 186.799 374.871C197.192 374.871 205.753 372.329 212.482 367.245C219.286 362.236 222.688 353.824 222.688 342.011V365.011ZM222.214 265.715C222.68 269.358 222.913 273.223 222.913 277.307C222.913 287.4 221.454 296.074 218.539 303.326C215.697 310.504 211.585 316.037 206.202 319.925C200.893 323.738 194.388 325.645 186.687 325.645C178.836 325.644 172.219 323.7 166.835 319.812C161.527 315.85 157.452 310.279 154.611 303.102C151.845 295.849 150.461 287.25 150.461 277.307C150.461 273.294 150.693 269.474 151.158 265.851C151.827 271.07 152.978 275.82 154.611 280.102C157.452 287.279 161.527 292.85 166.835 296.812C172.219 300.7 178.836 302.644 186.687 302.645C194.388 302.645 200.893 300.738 206.202 296.925C211.585 293.037 215.697 287.504 218.539 280.326C220.29 275.969 221.515 271.098 222.214 265.715ZM171.434 166.489C181.079 166.489 189.155 168.135 195.66 171.425C202.164 174.64 207.398 178.677 211.361 183.537C215.398 188.322 218.501 193.033 220.669 197.668H222.464V220.669H220.669C218.501 216.033 215.398 211.322 211.361 206.537C207.398 201.677 202.164 197.64 195.66 194.425C189.155 191.135 181.079 189.49 171.434 189.49C158.798 189.49 147.171 192.742 136.554 199.247C126.012 205.752 117.563 215.547 111.208 228.632C106.153 239.039 103.11 251.48 102.076 265.954C101.809 262.287 101.674 258.479 101.674 254.53C101.674 235.016 104.852 218.716 111.208 205.632C117.563 192.547 126.012 182.752 136.554 176.247C147.171 169.742 158.798 166.489 171.434 166.489ZM269.905 191.733H222.464V168.732H269.905V191.733Z" fill="#F3F3F3"/>
<path d="M709.176 172.102H741.777V208.2H709.176V292.13C709.176 296.567 709.852 300.026 711.206 302.508C712.56 304.914 714.44 306.606 716.847 307.584C719.328 308.562 722.186 309.051 725.42 309.051C727.676 309.051 729.932 308.862 732.188 308.486C734.445 308.035 736.175 307.697 737.378 307.472L744.936 343.231C742.529 343.983 739.145 344.849 734.783 345.826C730.421 346.879 725.119 347.519 718.877 347.744C707.295 348.195 697.143 346.654 688.419 343.119C679.77 339.584 673.04 334.094 668.227 326.648C663.564 319.436 661.194 310.388 661.119 299.506V208.2H637.43V172.102H661.119V130.589H709.176V172.102Z" fill="#F3F3F3"/>
<path d="M554.333 169.847C576.218 169.847 593.44 174.472 605.999 183.722C618.634 192.972 626.005 205.569 628.11 221.513L584.114 224.22C583.362 220.46 581.745 217.076 579.264 214.067C576.782 210.984 573.51 208.539 569.449 206.734C565.463 204.854 560.688 203.914 555.123 203.914C547.678 203.914 541.398 205.494 536.284 208.652C531.17 211.736 528.613 215.872 528.613 221.062C528.613 225.198 530.268 228.695 533.577 231.553C536.886 234.41 542.564 236.704 550.61 238.434L581.972 244.751C598.818 248.21 611.377 253.775 619.649 261.446C627.922 269.117 632.059 279.195 632.059 291.679C632.059 303.035 628.712 313 622.019 321.573C615.4 330.147 606.3 336.84 594.719 341.653C583.212 346.391 569.938 348.76 554.897 348.76C531.96 348.76 513.685 343.984 500.073 334.434C486.536 324.807 478.602 311.721 476.271 295.176L523.537 292.694C524.966 299.688 528.425 305.028 533.915 308.713C539.405 312.323 546.437 314.128 555.011 314.128C563.433 314.128 570.202 312.511 575.315 309.277C580.505 305.968 583.137 301.718 583.212 296.529C583.137 292.168 581.294 288.595 577.685 285.812C574.075 282.955 568.509 280.775 560.989 279.271L530.982 273.291C514.061 269.907 501.464 264.041 493.191 255.693C484.994 247.346 480.896 236.704 480.896 223.769C480.896 212.638 483.904 203.05 489.92 195.003C496.012 186.956 504.547 180.751 515.527 176.389C526.582 172.027 539.518 169.847 554.333 169.847Z" fill="#F3F3F3"/>
</svg>
